<?xml version="1.0" standalone="no"?>
<!DOCTYPE svg PUBLIC "-//W3C//DTD SVG 20010904//EN"
 "http://www.w3.org/TR/2001/REC-SVG-20010904/DTD/svg10.dtd">
<svg version="1.0" xmlns="http://www.w3.org/2000/svg"
 width="56.000000pt" height="55.000000pt" viewBox="0 0 56.000000 55.000000"
 preserveAspectRatio="xMidYMid meet">

<g transform="translate(0.000000,55.000000) scale(0.100000,-0.100000)"
fill="#ffffff" stroke="none">
<path d="M218 544 c-5 -4 -8 -65 -8 -136 0 -70 3 -128 8 -128 4 0 40 36 80 80
65 71 77 80 109 80 l35 0 -65 -73 -65 -73 80 -112 c44 -62 83 -112 87 -112 12
0 56 69 69 109 15 43 14 146 -1 188 -39 106 -133 173 -251 181 -39 2 -74 1
-78 -4z"/>
<path d="M102 484 c-66 -56 -96 -123 -96 -214 0 -61 5 -84 26 -126 29 -56 84
-109 134 -130 65 -27 254 -13 254 18 0 7 -116 173 -142 202 -5 6 -20 -2 -38
-19 -24 -23 -30 -37 -30 -72 0 -41 -1 -43 -30 -43 l-30 0 -2 211 -3 210 -43
-37z"/>
</g>
</svg>
